<svg width="375" height="812" viewBox="0 0 375 812" fill="none" xmlns="http://www.w3.org/2000/svg">
<g clip-path="url(#clip0)">
<rect width="375" height="812" fill="#FAEFF0"/>
<path d="M251 871.35C251 916.444 212.944 953 166 953C119.056 953 81 916.444 81 871.35C81 826.255 123.36 785 170.304 785C217.248 785 251 826.255 251 871.35Z" fill="#B7C9DA"/>
<path d="M360 220.009C360 262.778 313.904 280 280.494 280C247.084 280 220 256.766 220 228.105C220 199.443 255.908 156 289.318 156C322.728 156 360 191.348 360 220.009Z" fill="#EADEDF"/>
<path d="M475 800.458C475 876.42 404.933 938 318.5 938C232.067 938 162 876.42 162 800.458C162 724.496 239.991 655 326.424 655C412.857 655 475 724.496 475 800.458Z" fill="white"/>
<path fill-rule="evenodd" clip-rule="evenodd" d="M272.384 230.982C274.593 231.076 276.355 231.895 277.403 233.371C278.659 235.139 278.707 237.553 277.54 240.171C276.454 242.608 274.414 244.974 271.798 246.832C269.182 248.691 266.278 249.838 263.619 250.061C263.3 250.088 262.988 250.101 262.683 250.101C260.271 250.101 258.359 249.263 257.245 247.694C257.192 247.619 257.154 247.538 257.105 247.462C254.688 249.726 254.68 258.198 254.68 264.545C254.68 264.656 254.649 264.757 254.617 264.856C256.201 269.719 256.482 275.509 256.482 278.97C256.482 279.538 256.022 280 255.452 280C254.882 280 254.422 279.538 254.422 278.97C254.422 274.298 253.813 259.417 246.225 258.419C245.995 258.612 245.752 258.781 245.499 258.929C245.418 259.295 245.31 259.655 245.148 260.002C244.224 261.963 242.144 263.191 239.291 263.46C238.904 263.496 238.508 263.515 238.104 263.515C235.745 263.515 233.15 262.897 230.67 261.729C224.397 258.778 220.928 253.394 222.772 249.473C223.567 247.785 225.2 246.687 227.3 246.215C226.271 242.183 227.054 238.76 229.445 237.318C231.374 236.154 233.996 236.51 236.602 238.223C237.451 237.143 238.52 236.421 239.764 236.197C243.744 235.491 247.782 240.044 248.959 246.584C249.665 250.51 249.139 254.187 247.706 256.623C249.813 257.227 251.422 258.659 252.646 260.559C252.752 253.607 253.28 248.407 255.541 246.095C252.902 244.316 251.119 240.093 251.119 235.161C251.119 228.516 254.288 223.312 258.332 223.312C259.595 223.312 260.774 223.834 261.801 224.745C264.064 222.597 266.58 221.785 268.685 222.589C271.299 223.586 272.69 226.82 272.384 230.982ZM246.931 246.947C245.99 241.726 242.889 237.73 240.129 238.225C239.186 238.394 238.384 239.089 237.773 240.142C237.769 240.149 237.767 240.155 237.766 240.162C237.764 240.169 237.762 240.175 237.758 240.182C237.35 240.895 237.038 241.752 236.829 242.704L236.823 242.738C236.762 243.017 236.711 243.308 236.669 243.602C236.66 243.668 236.651 243.734 236.642 243.801C236.608 244.068 236.581 244.342 236.561 244.619C236.56 244.645 236.557 244.671 236.555 244.696C236.553 244.723 236.55 244.75 236.549 244.777C236.528 245.11 236.518 245.447 236.519 245.791C236.519 245.827 236.522 245.863 236.522 245.899C236.525 246.193 236.536 246.491 236.556 246.791C236.563 246.895 236.572 247 236.581 247.105C236.59 247.225 236.605 247.344 236.618 247.464C236.828 247.553 237.038 247.647 237.247 247.745H237.248C237.592 247.908 237.929 248.08 238.258 248.257C238.261 248.258 238.263 248.259 238.264 248.261C238.265 248.262 238.266 248.263 238.267 248.263C238.382 248.325 238.492 248.389 238.603 248.452L238.674 248.493C238.738 248.53 238.801 248.567 238.864 248.605C238.91 248.632 238.956 248.659 239.002 248.687C239.076 248.73 239.153 248.772 239.225 248.817C239.226 248.819 239.228 248.819 239.229 248.819C239.231 248.82 239.232 248.821 239.233 248.822C239.551 249.016 239.858 249.219 240.156 249.427C240.205 249.461 240.257 249.492 240.305 249.528C240.743 249.839 241.157 250.161 241.548 250.495C241.566 250.51 241.583 250.527 241.601 250.542C241.976 250.865 242.325 251.197 242.651 251.536C242.67 251.555 242.689 251.575 242.708 251.594C242.72 251.605 242.731 251.617 242.742 251.628C243.418 252.341 243.986 253.083 244.435 253.838C244.458 253.877 244.481 253.917 244.504 253.957C244.941 254.712 245.259 255.477 245.443 256.233C245.448 256.249 245.456 256.267 245.46 256.283C246.975 254.429 247.616 250.755 246.931 246.947ZM235.552 239.987C233.622 238.695 231.736 238.343 230.509 239.082C228.903 240.05 228.464 242.757 229.345 245.955C230.922 245.9 232.661 246.142 234.45 246.678L234.485 246.687C234.484 246.661 234.484 246.635 234.485 246.61C234.486 246.584 234.486 246.559 234.485 246.532C234.429 245.322 234.489 244.166 234.659 243.095V243.094C234.747 242.537 234.866 242.006 235.01 241.499C235.017 241.477 235.023 241.455 235.029 241.433C235.176 240.923 235.35 240.439 235.552 239.988V239.987ZM231.548 259.863C234.122 261.074 236.807 261.622 239.099 261.407C241.196 261.21 242.682 260.398 243.282 259.124C243.436 258.795 243.524 258.444 243.558 258.078C243.565 257.99 243.565 257.901 243.566 257.812C243.567 257.751 243.569 257.69 243.568 257.628C243.568 257.593 243.566 257.557 243.564 257.521C243.558 257.422 243.546 257.321 243.532 257.221C243.52 257.129 243.506 257.036 243.488 256.943C243.467 256.837 243.441 256.729 243.413 256.622C243.389 256.534 243.362 256.444 243.333 256.353C243.296 256.24 243.257 256.127 243.213 256.012C243.18 255.929 243.143 255.845 243.106 255.761C243.052 255.638 242.997 255.517 242.935 255.394C242.899 255.324 242.857 255.253 242.819 255.183C242.791 255.131 242.762 255.08 242.733 255.028C242.685 254.942 242.636 254.856 242.582 254.771C242.563 254.739 242.539 254.707 242.518 254.675C242.425 254.53 242.327 254.385 242.223 254.241C242.129 254.11 242.025 253.981 241.922 253.851C241.57 253.409 241.173 252.973 240.728 252.55C240.711 252.535 240.695 252.519 240.679 252.504C240.663 252.489 240.647 252.473 240.631 252.458C240.477 252.315 240.317 252.173 240.153 252.034C240.117 252.004 240.082 251.974 240.047 251.944C240.023 251.924 240 251.904 239.977 251.885C239.824 251.758 239.666 251.635 239.507 251.512C239.425 251.45 239.343 251.388 239.259 251.326C239.111 251.216 238.959 251.108 238.804 251.002C238.694 250.927 238.582 250.854 238.468 250.78C238.382 250.724 238.296 250.668 238.21 250.613C238.156 250.579 238.102 250.545 238.047 250.511C237.893 250.419 237.737 250.33 237.579 250.24C237.519 250.206 237.459 250.171 237.399 250.137C237.349 250.108 237.298 250.08 237.247 250.052C236.963 249.898 236.671 249.749 236.373 249.608C236.02 249.443 235.668 249.294 235.315 249.155C235.298 249.148 235.281 249.142 235.263 249.135C235.246 249.129 235.229 249.123 235.211 249.116C234.69 248.913 234.165 248.738 233.641 248.591C233.626 248.587 233.611 248.582 233.596 248.577C233.581 248.572 233.565 248.567 233.551 248.563C233.043 248.423 232.54 248.317 232.041 248.231C231.986 248.222 231.93 248.211 231.875 248.201C231.849 248.196 231.823 248.192 231.798 248.188C231.317 248.114 230.844 248.069 230.382 248.046C230.351 248.045 230.32 248.043 230.29 248.041C230.245 248.039 230.2 248.037 230.156 248.036C229.678 248.021 229.214 248.035 228.769 248.079C226.793 248.271 225.256 249.032 224.638 250.349C223.33 253.127 226.495 257.485 231.548 259.863ZM270.313 231.09C270.617 227.78 269.705 225.185 267.951 224.515C266.588 223.995 264.833 224.659 263.146 226.298L263.147 226.299C263.426 226.708 263.683 227.154 263.92 227.631C263.925 227.642 263.931 227.652 263.936 227.663C263.939 227.671 263.943 227.678 263.947 227.686C264.627 229.076 265.117 230.732 265.359 232.566C265.362 232.589 265.367 232.612 265.372 232.635C265.376 232.657 265.381 232.68 265.384 232.704C265.404 232.693 265.425 232.684 265.445 232.675C265.461 232.668 265.476 232.662 265.491 232.654C265.852 232.474 266.214 232.307 266.578 232.154L266.579 232.154C266.599 232.145 266.62 232.136 266.64 232.128C267.854 231.624 269.072 231.276 270.255 231.101C270.275 231.098 270.294 231.093 270.313 231.09ZM258.332 225.373C255.539 225.373 253.18 229.856 253.18 235.161C253.18 239.03 254.46 242.532 256.282 244.087C256.284 244.065 256.288 244.04 256.292 244.016C256.295 244 256.298 243.985 256.299 243.969C256.323 243.636 256.367 243.297 256.439 242.951C256.443 242.931 256.446 242.911 256.449 242.891C256.452 242.866 256.456 242.841 256.462 242.816C256.541 242.462 256.651 242.099 256.78 241.733C256.83 241.59 256.888 241.446 256.947 241.303L256.976 241.232C256.996 241.183 257.014 241.134 257.033 241.084C257.056 241.021 257.08 240.958 257.109 240.894C257.126 240.856 257.145 240.819 257.164 240.782C257.182 240.747 257.2 240.712 257.217 240.676C257.218 240.673 257.218 240.67 257.218 240.668C257.218 240.664 257.218 240.661 257.22 240.659C257.229 240.639 257.24 240.619 257.25 240.6C257.261 240.58 257.271 240.561 257.281 240.541L257.314 240.472C257.377 240.344 257.439 240.216 257.508 240.088C257.541 240.027 257.575 239.966 257.61 239.905C257.625 239.878 257.64 239.85 257.656 239.823C257.664 239.809 257.673 239.794 257.681 239.78C257.814 239.545 257.95 239.31 258.101 239.078C258.147 239.008 258.196 238.938 258.245 238.869C258.282 238.818 258.318 238.767 258.353 238.716C258.376 238.685 258.397 238.652 258.42 238.62C258.429 238.607 258.439 238.594 258.448 238.581C258.458 238.568 258.468 238.555 258.477 238.542C258.619 238.343 258.765 238.146 258.919 237.95C259.028 237.811 259.137 237.673 259.253 237.536C259.528 237.208 259.814 236.885 260.12 236.569C260.188 236.499 260.259 236.431 260.328 236.362C260.632 236.058 260.953 235.764 261.283 235.475C261.393 235.379 261.503 235.286 261.615 235.192C261.725 235.1 261.832 235.006 261.945 234.916V234.915C262.038 234.841 262.135 234.769 262.232 234.697C262.284 234.658 262.336 234.62 262.388 234.581C262.442 234.54 262.495 234.499 262.549 234.458C262.647 234.382 262.747 234.305 262.849 234.233C263.039 234.099 263.229 233.969 263.419 233.844C263.416 233.798 263.413 233.751 263.409 233.704C263.405 233.634 263.4 233.564 263.393 233.495C263.383 233.384 263.373 233.273 263.361 233.164C263.328 232.877 263.288 232.591 263.241 232.311C263.236 232.279 263.232 232.245 263.227 232.212C263.225 232.199 263.223 232.187 263.22 232.175C263.162 231.841 263.092 231.515 263.014 231.194C263.006 231.16 262.997 231.127 262.988 231.094C262.981 231.069 262.975 231.044 262.968 231.019C262.901 230.758 262.829 230.502 262.75 230.252C262.728 230.182 262.705 230.113 262.683 230.044C262.591 229.771 262.494 229.504 262.389 229.248C262.381 229.229 262.375 229.21 262.366 229.191C261.993 228.294 261.536 227.507 261.008 226.879C261.003 226.873 261 226.866 260.997 226.86C260.994 226.854 260.991 226.848 260.988 226.843C260.203 225.915 259.289 225.373 258.332 225.373ZM270.606 245.151C272.926 243.503 274.72 241.436 275.658 239.332C276.517 237.407 276.539 235.714 275.719 234.567C275.005 233.563 273.687 233.026 271.962 233.026C271.752 233.026 271.535 233.038 271.315 233.054C271.314 233.054 271.313 233.054 271.312 233.054C271.312 233.055 271.311 233.055 271.31 233.055C271.104 233.069 270.893 233.095 270.682 233.124C270.656 233.127 270.631 233.13 270.606 233.133C270.578 233.136 270.551 233.139 270.523 233.144C270.309 233.175 270.092 233.217 269.873 233.263C269.857 233.266 269.841 233.27 269.824 233.273C269.797 233.279 269.769 233.284 269.741 233.291C269.508 233.342 269.273 233.401 269.038 233.468C269.014 233.474 268.991 233.48 268.967 233.488C267.715 233.849 266.427 234.421 265.188 235.166C265.14 235.195 265.092 235.221 265.044 235.25L265.027 235.261C264.696 235.465 264.366 235.68 264.039 235.912C264 235.94 263.962 235.969 263.924 235.998C263.878 236.033 263.832 236.069 263.785 236.104L263.741 236.136C263.578 236.256 263.416 236.376 263.262 236.499C263.171 236.571 263.083 236.645 262.995 236.72C262.962 236.748 262.93 236.775 262.897 236.803C262.781 236.899 262.667 236.997 262.555 237.095C262.397 237.235 262.244 237.378 262.093 237.521C262.055 237.558 262.017 237.594 261.979 237.631C261.96 237.649 261.941 237.668 261.922 237.686C261.754 237.851 261.59 238.018 261.432 238.187C261.401 238.221 261.37 238.255 261.339 238.288C261.17 238.471 261.005 238.658 260.848 238.845L260.81 238.892C260.217 239.606 259.722 240.34 259.33 241.069C259.252 241.216 259.17 241.364 259.101 241.511C259.023 241.672 258.952 241.834 258.885 241.995C258.859 242.057 258.835 242.118 258.812 242.178C258.754 242.327 258.7 242.475 258.653 242.621C258.648 242.638 258.642 242.654 258.637 242.671C258.617 242.735 258.599 242.798 258.581 242.862C258.544 242.993 258.507 243.125 258.478 243.254C258.467 243.302 258.458 243.35 258.449 243.398C258.442 243.436 258.435 243.474 258.428 243.512L258.422 243.548C258.402 243.656 258.383 243.765 258.37 243.872C258.362 243.933 258.359 243.991 258.355 244.05C258.354 244.076 258.352 244.101 258.35 244.127C258.345 244.202 258.338 244.279 258.335 244.354C258.333 244.392 258.332 244.43 258.332 244.468C258.332 244.522 258.335 244.575 258.339 244.627C258.341 244.654 258.343 244.681 258.344 244.708C258.35 244.817 258.353 244.927 258.368 245.033C258.375 245.086 258.386 245.136 258.397 245.186C258.403 245.212 258.409 245.238 258.414 245.264C258.418 245.285 258.422 245.307 258.426 245.328C258.441 245.407 258.456 245.486 258.478 245.562C258.578 245.903 258.725 246.217 258.925 246.498C259.741 247.647 261.345 248.183 263.447 248.006C265.744 247.813 268.286 246.799 270.606 245.151Z" fill="white"/>
<path fill-rule="evenodd" clip-rule="evenodd" d="M272.133 252.801C272.124 257.899 269.608 262.398 265.796 265.057C269.58 266.057 272.726 268.693 274.255 272.333C274.367 272.501 274.432 272.701 274.431 272.911C274.43 273.331 274.174 273.708 273.785 273.865C272.132 274.528 270.428 274.842 268.758 274.842C263.697 274.842 258.953 271.955 256.918 267.172C256.838 267.064 256.785 266.942 256.754 266.81C256.75 266.796 256.749 266.782 256.747 266.767C256.746 266.758 256.745 266.75 256.743 266.741C256.74 266.723 256.737 266.705 256.733 266.688C256.726 266.653 256.719 266.617 256.719 266.58C256.719 266.551 256.723 266.525 256.723 266.496C256.723 266.487 256.72 266.479 256.721 266.471C256.721 266.467 256.722 266.464 256.723 266.46C256.724 266.457 256.724 266.455 256.725 266.452C256.763 262.549 258.245 258.885 260.92 256.125C263.584 253.374 267.114 251.841 270.878 251.793C271.081 251.75 271.294 251.764 271.493 251.845C271.881 252.004 272.134 252.382 272.133 252.801ZM270.024 253.896C267.145 254.143 264.47 255.421 262.4 257.558C260.323 259.702 259.076 262.481 258.824 265.478C258.834 265.477 258.843 265.477 258.852 265.476C258.861 265.476 258.87 265.476 258.879 265.475C258.911 265.472 258.943 265.467 258.974 265.462C259.001 265.458 259.029 265.454 259.056 265.451C260.106 265.336 261.145 265.083 262.155 264.683C262.159 264.682 262.163 264.682 262.167 264.681C262.171 264.681 262.175 264.681 262.178 264.679C266.466 262.97 269.608 258.835 270.024 253.896ZM261.003 267.203C260.469 267.329 259.926 267.434 259.372 267.497C261.827 271.742 267.052 273.766 271.97 272.315C270.199 268.952 266.687 266.785 262.719 266.676C262.702 266.682 262.685 266.687 262.667 266.692C262.648 266.697 262.628 266.703 262.609 266.71C262.148 266.881 261.677 267.028 261.196 267.15C261.131 267.166 261.067 267.187 261.003 267.203Z" fill="white"/>
<path fill-rule="evenodd" clip-rule="evenodd" d="M203.076 727.828C213.801 728.295 223.503 736.371 226.378 747.375C228.108 754 228.99 760.608 229 767.013C229.002 767.735 228.415 768.316 227.698 768.316C226.982 768.316 226.398 767.735 226.397 767.016C226.388 760.832 225.534 754.447 223.859 748.033C219.972 733.153 203.004 725.61 191.68 733.719L173.784 746.528L173.782 746.53L173.777 746.533L173.772 746.537L173.771 746.538L173.769 746.539L173.682 746.6C173.67 746.615 173.611 746.655 173.513 746.723C172.713 747.279 169.3 749.648 167.27 754.385C166.3 756.603 165.691 759.36 165.691 762.297C165.691 763.153 165.743 764.026 165.844 764.888C165.927 765.603 165.415 766.249 164.702 766.332C163.989 766.416 163.341 765.905 163.258 765.19C163.145 764.227 163.088 763.253 163.088 762.297C163.088 760.016 163.405 757.819 164.013 755.753C163.154 755.883 162.272 755.95 161.368 755.95H161.366C160.141 755.95 158.868 755.823 157.586 755.575C156.879 755.438 156.418 754.755 156.555 754.049C156.692 753.343 157.374 752.883 158.08 753.018C160.425 753.472 162.797 753.486 165.093 752.861C166.188 750.475 167.712 748.333 169.616 746.537C165.932 746.067 162.636 744.328 159.807 741.854C156.32 742.75 153 744.86 149.902 748.16C149.654 748.424 149.603 748.715 149.603 748.913C149.603 749.316 149.806 749.677 150.15 749.88C151.204 750.508 152.295 751.067 153.391 751.541C154.05 751.826 154.354 752.591 154.069 753.253C153.785 753.912 153.019 754.216 152.358 753.931C151.16 753.414 149.968 752.803 148.817 752.117C147.679 751.439 147 750.241 147 748.913C147 747.967 147.356 747.067 148.003 746.378C151.025 743.16 154.264 740.952 157.683 739.77C156.503 738.477 155.565 737.211 154.88 736.187C154.25 735.247 154.081 734.084 154.422 733.001C154.76 731.921 155.559 731.067 156.609 730.656C163.964 727.776 169.637 728.523 173.745 730.369L168.123 722.515C167.705 721.931 167.84 721.118 168.423 720.698C169.008 720.282 169.822 720.415 170.24 721L175.974 729.01C175.904 728.373 175.864 727.719 175.864 727.047C175.864 722.127 177.844 717.286 181.752 712.66C182.456 711.825 183.491 711.346 184.586 711.346C185.757 711.346 186.835 711.879 187.547 712.808C188.328 713.83 189.211 715.116 190.034 716.611C192.061 714.009 195.055 711.56 199.409 709.586C199.895 709.366 200.41 709.255 200.938 709.255C202.686 709.255 204.218 710.496 204.581 712.207C204.857 713.514 205.049 714.835 205.154 716.133C205.211 716.85 204.676 717.477 203.959 717.534C203.241 717.591 202.616 717.057 202.559 716.34C202.463 715.154 202.286 713.945 202.033 712.747C201.91 712.164 201.389 711.858 200.938 711.858C200.783 711.858 200.63 711.892 200.485 711.957C195.97 714.005 193.106 716.607 191.332 719.315C191.818 720.497 192.228 721.762 192.511 723.092C192.658 723.796 192.209 724.487 191.506 724.637C190.803 724.784 190.112 724.335 189.963 723.632C189.63 722.057 189.08 720.537 188.39 719.105C187.484 717.211 186.401 715.597 185.478 714.389C185.264 714.11 184.938 713.95 184.586 713.95C184.393 713.95 184.027 714 183.74 714.341C180.241 718.483 178.467 722.758 178.467 727.047C178.467 730.767 179.814 733.933 181.213 736.22L181.248 736.263L181.293 736.32L181.294 736.321C181.453 736.52 181.747 736.885 182.099 737.375L189.17 732.313C189.722 731.046 190.074 729.739 190.225 728.394C190.305 727.679 190.947 727.165 191.664 727.245C192.377 727.325 192.893 727.969 192.811 728.684C192.757 729.165 192.683 729.64 192.587 730.112C194.884 728.913 197.391 728.168 200.004 727.91C201.278 726.034 202.093 723.815 202.446 721.255C202.545 720.543 203.201 720.045 203.913 720.144C204.626 720.242 205.124 720.898 205.025 721.611C204.754 723.583 204.18 725.742 203.076 727.828ZM163.404 741.361C166.465 743.457 169.633 744.282 172.82 744.015L179.886 738.957C179.809 738.852 179.733 738.742 179.657 738.631L178.667 737.248C175.351 733.484 171.056 731.322 166.021 731.322C163.378 731.322 160.552 731.907 157.558 733.079C157.129 733.247 156.966 733.591 156.907 733.78C156.803 734.106 156.853 734.457 157.042 734.74C157.848 735.941 159.035 737.513 160.576 739.023C161.416 739.844 162.359 740.648 163.404 741.361Z" fill="#B7C9DA"/>
<path d="M216.889 739.351C217.794 740.616 217.958 742.048 217.256 742.551C216.553 743.054 215.25 742.436 214.345 741.171C213.44 739.906 213.276 738.474 213.978 737.971C214.68 737.468 215.983 738.086 216.889 739.351Z" fill="#B7C9DA"/>
<path d="M182.772 751.47C183.677 752.735 183.841 754.167 183.139 754.67C182.437 755.173 181.133 754.555 180.228 753.29C179.323 752.025 179.159 750.593 179.861 750.09C180.563 749.587 181.866 750.205 182.772 751.47Z" fill="#B7C9DA"/>
<path d="M177.05 765.838C177.955 767.103 178.12 768.536 177.417 769.038C176.715 769.541 175.412 768.923 174.507 767.658C173.602 766.394 173.437 764.961 174.139 764.458C174.842 763.956 176.145 764.573 177.05 765.838Z" fill="#B7C9DA"/>
<path d="M197.212 763.898C197.914 763.395 197.75 761.963 196.844 760.698C195.939 759.433 194.636 758.815 193.934 759.318C193.232 759.821 193.396 761.253 194.301 762.518C195.206 763.783 196.509 764.401 197.212 763.898Z" fill="#B7C9DA"/>
<path d="M213.015 759.954C213.717 759.451 213.553 758.018 212.648 756.754C211.743 755.489 210.439 754.871 209.737 755.374C209.035 755.876 209.199 757.309 210.104 758.574C211.01 759.839 212.313 760.457 213.015 759.954Z" fill="#B7C9DA"/>
<path d="M221.461 771.431C222.366 772.696 222.53 774.128 221.828 774.631C221.126 775.134 219.822 774.516 218.917 773.251C218.012 771.986 217.848 770.554 218.55 770.051C219.252 769.548 220.555 770.166 221.461 771.431Z" fill="#B7C9DA"/>
<path d="M202.522 782.461C203.225 781.958 203.06 780.525 202.155 779.26C201.25 777.996 199.947 777.378 199.244 777.88C198.542 778.383 198.706 779.816 199.612 781.081C200.517 782.345 201.82 782.963 202.522 782.461Z" fill="#B7C9DA"/>
<path d="M215.712 786.52C216.617 787.785 216.781 789.218 216.079 789.72C215.377 790.223 214.074 789.605 213.168 788.34C212.263 787.076 212.099 785.643 212.801 785.14C213.503 784.638 214.807 785.255 215.712 786.52Z" fill="#B7C9DA"/>
<path d="M184.702 782.615C185.405 782.112 185.24 780.68 184.335 779.415C183.43 778.15 182.127 777.532 181.424 778.035C180.722 778.538 180.886 779.97 181.792 781.235C182.697 782.5 184 783.118 184.702 782.615Z" fill="#B7C9DA"/>
<path d="M200.129 741.577C201.034 742.842 201.199 744.275 200.496 744.777C199.794 745.28 198.491 744.662 197.586 743.397C196.681 742.133 196.516 740.7 197.219 740.197C197.921 739.695 199.224 740.312 200.129 741.577Z" fill="#B7C9DA"/>
<path d="M227.608 770.918C226.887 770.864 226.266 771.402 226.212 772.119C225.787 777.821 224.642 783.257 222.807 788.275C221.25 792.534 217.15 795.396 212.608 795.396C212.315 795.396 212.016 795.384 211.723 795.36C193.439 793.872 176.617 782.129 176.451 782.011C176.44 782.002 176.43 781.995 176.419 781.988C171.995 779.053 168.626 774.685 166.929 769.689C166.698 769.009 165.958 768.645 165.278 768.875C164.598 769.106 164.233 769.846 164.464 770.526C166.342 776.059 170.07 780.895 174.963 784.148C175.302 784.385 179.511 787.313 186.014 790.462C192.155 793.433 201.563 797.146 211.511 797.955C211.876 797.984 212.244 798 212.608 798C218.241 798 223.321 794.451 225.251 789.169C227.169 783.925 228.365 778.253 228.809 772.314C228.861 771.597 228.325 770.972 227.608 770.918Z" fill="#B7C9DA"/>
</g>
<defs>
<clipPath id="clip0">
<rect width="375" height="812" fill="white"/>
</clipPath>
</defs>
</svg>
